<svg width="22" height="19" viewBox="0 0 22 19" fill="none" xmlns="http://www.w3.org/2000/svg">
<path d="M0.972107 1.69141C0.972107 0.863125 1.62168 0.191406 2.42266 0.191406H19.8292C20.6316 0.191406 21.2798 0.863125 21.2798 1.69141C21.2798 2.52109 20.6316 3.19141 19.8292 3.19141H2.42266C1.62168 3.19141 0.972107 2.52109 0.972107 1.69141ZM0.972107 9.19141C0.972107 8.36172 1.62168 7.69141 2.42266 7.69141H19.8292C20.6316 7.69141 21.2798 8.36172 21.2798 9.19141C21.2798 10.0211 20.6316 10.6914 19.8292 10.6914H2.42266C1.62168 10.6914 0.972107 10.0211 0.972107 9.19141ZM19.8292 18.1914H2.42266C1.62168 18.1914 0.972107 17.5211 0.972107 16.6914C0.972107 15.8617 1.62168 15.1914 2.42266 15.1914H19.8292C20.6316 15.1914 21.2798 15.8617 21.2798 16.6914C21.2798 17.5211 20.6316 18.1914 19.8292 18.1914Z" fill="white"/>
</svg>
