<svg width="22" height="22" viewBox="0 0 22 22" fill="none" xmlns="http://www.w3.org/2000/svg">
<path d="M15.5966 14.784C14.7985 15.5821 13.1296 17.2509 11.9812 18.3993C11.3157 19.0649 10.2378 19.0652 9.57225 18.3997C8.44389 17.2713 6.80728 15.6347 5.95655 14.784C3.29451 12.122 3.29451 7.80595 5.95655 5.14392C8.61857 2.48189 12.9346 2.48189 15.5966 5.14392C18.2586 7.80595 18.2586 12.122 15.5966 14.784Z" stroke="#842E4D" stroke-width="1.20292" stroke-linecap="round" stroke-linejoin="round"/>
<path d="M13.3328 9.96398C13.3328 11.3758 12.1884 12.5202 10.7766 12.5202C9.36481 12.5202 8.2204 11.3758 8.2204 9.96398C8.2204 8.55223 9.36481 7.40778 10.7766 7.40778C12.1884 7.40778 13.3328 8.55223 13.3328 9.96398Z" stroke="#842E4D" stroke-width="1.20292" stroke-linecap="round" stroke-linejoin="round"/>
</svg>
