<svg width="22" height="22" viewBox="0 0 22 22" fill="none" xmlns="http://www.w3.org/2000/svg">
<path d="M3.10803 5.1829C3.10803 4.24173 3.871 3.47876 4.81217 3.47876H7.6063C7.97306 3.47876 8.29867 3.71344 8.41464 4.06138L9.69086 7.8901C9.82497 8.29237 9.64288 8.73202 9.26363 8.92166L7.34026 9.88333C8.27945 11.9664 9.95764 13.6446 12.0407 14.5838L13.0023 12.6604C13.192 12.2811 13.6317 12.099 14.0339 12.2332L17.8626 13.5094C18.2106 13.6254 18.4453 13.9509 18.4453 14.3177V17.1118C18.4453 18.053 17.6823 18.816 16.7411 18.816H15.8891C8.83029 18.816 3.10803 13.0938 3.10803 6.03496V5.1829Z" stroke="#842E4D" stroke-width="1.20292" stroke-linecap="round" stroke-linejoin="round"/>
</svg>
